<mxfile host="app.diagrams.net" agent="Mozilla/5.0 (Windows NT 10.0; Win64; x64) AppleWebKit/537.36 (KHTML, like Gecko) Chrome/138.0.0.0 Safari/537.36" version="28.0.7">
  <diagram name="Page-1" id="9iDJJ-6O2so7_e3pGB2_">
    <mxGraphModel dx="1303" dy="703" grid="1" gridSize="10" guides="1" tooltips="1" connect="1" arrows="1" fold="1" page="1" pageScale="1" pageWidth="850" pageHeight="1100" math="0" shadow="0">
      <root>
        <mxCell id="0" />
        <mxCell id="1" parent="0" />
        <mxCell id="K6s3JF-0Fj6q0EBu_NB_-3" value="" style="edgeStyle=orthogonalEdgeStyle;rounded=0;orthogonalLoop=1;jettySize=auto;html=1;" edge="1" parent="1" source="K6s3JF-0Fj6q0EBu_NB_-1" target="K6s3JF-0Fj6q0EBu_NB_-2">
          <mxGeometry relative="1" as="geometry" />
        </mxCell>
        <mxCell id="K6s3JF-0Fj6q0EBu_NB_-1" value="Start" style="ellipse;whiteSpace=wrap;html=1;fillColor=#dae8fc;strokeColor=#6c8ebf;" vertex="1" parent="1">
          <mxGeometry x="60" y="10" width="110" height="60" as="geometry" />
        </mxCell>
        <mxCell id="K6s3JF-0Fj6q0EBu_NB_-5" value="" style="edgeStyle=orthogonalEdgeStyle;rounded=0;orthogonalLoop=1;jettySize=auto;html=1;" edge="1" parent="1" source="K6s3JF-0Fj6q0EBu_NB_-2" target="K6s3JF-0Fj6q0EBu_NB_-4">
          <mxGeometry relative="1" as="geometry" />
        </mxCell>
        <mxCell id="K6s3JF-0Fj6q0EBu_NB_-2" value="login" style="rhombus;whiteSpace=wrap;html=1;fillColor=#d5e8d4;strokeColor=#82b366;" vertex="1" parent="1">
          <mxGeometry x="75" y="140" width="80" height="80" as="geometry" />
        </mxCell>
        <mxCell id="K6s3JF-0Fj6q0EBu_NB_-7" value="" style="edgeStyle=orthogonalEdgeStyle;rounded=0;orthogonalLoop=1;jettySize=auto;html=1;" edge="1" parent="1" source="K6s3JF-0Fj6q0EBu_NB_-4" target="K6s3JF-0Fj6q0EBu_NB_-6">
          <mxGeometry relative="1" as="geometry" />
        </mxCell>
        <mxCell id="K6s3JF-0Fj6q0EBu_NB_-4" value="food search" style="whiteSpace=wrap;html=1;fillColor=#ffe6cc;strokeColor=#d79b00;" vertex="1" parent="1">
          <mxGeometry x="55" y="310" width="120" height="60" as="geometry" />
        </mxCell>
        <mxCell id="K6s3JF-0Fj6q0EBu_NB_-9" value="" style="edgeStyle=orthogonalEdgeStyle;rounded=0;orthogonalLoop=1;jettySize=auto;html=1;" edge="1" parent="1" source="K6s3JF-0Fj6q0EBu_NB_-6" target="K6s3JF-0Fj6q0EBu_NB_-8">
          <mxGeometry relative="1" as="geometry" />
        </mxCell>
        <mxCell id="K6s3JF-0Fj6q0EBu_NB_-6" value="food order" style="whiteSpace=wrap;html=1;fillColor=#fff2cc;strokeColor=#d6b656;" vertex="1" parent="1">
          <mxGeometry x="55" y="450" width="120" height="60" as="geometry" />
        </mxCell>
        <mxCell id="K6s3JF-0Fj6q0EBu_NB_-11" value="" style="edgeStyle=orthogonalEdgeStyle;rounded=0;orthogonalLoop=1;jettySize=auto;html=1;" edge="1" parent="1" source="K6s3JF-0Fj6q0EBu_NB_-8" target="K6s3JF-0Fj6q0EBu_NB_-10">
          <mxGeometry relative="1" as="geometry" />
        </mxCell>
        <mxCell id="K6s3JF-0Fj6q0EBu_NB_-8" value="payments" style="whiteSpace=wrap;html=1;fillColor=#f8cecc;strokeColor=#b85450;" vertex="1" parent="1">
          <mxGeometry x="55" y="590" width="120" height="60" as="geometry" />
        </mxCell>
        <mxCell id="K6s3JF-0Fj6q0EBu_NB_-13" value="" style="edgeStyle=orthogonalEdgeStyle;rounded=0;orthogonalLoop=1;jettySize=auto;html=1;" edge="1" parent="1" source="K6s3JF-0Fj6q0EBu_NB_-10" target="K6s3JF-0Fj6q0EBu_NB_-12">
          <mxGeometry relative="1" as="geometry" />
        </mxCell>
        <mxCell id="K6s3JF-0Fj6q0EBu_NB_-10" value="delivery food" style="whiteSpace=wrap;html=1;fillColor=#e1d5e7;strokeColor=#9673a6;" vertex="1" parent="1">
          <mxGeometry x="55" y="730" width="120" height="60" as="geometry" />
        </mxCell>
        <mxCell id="K6s3JF-0Fj6q0EBu_NB_-15" value="" style="edgeStyle=orthogonalEdgeStyle;rounded=0;orthogonalLoop=1;jettySize=auto;html=1;" edge="1" parent="1" source="K6s3JF-0Fj6q0EBu_NB_-12" target="K6s3JF-0Fj6q0EBu_NB_-14">
          <mxGeometry relative="1" as="geometry" />
        </mxCell>
        <mxCell id="K6s3JF-0Fj6q0EBu_NB_-12" value="logout" style="whiteSpace=wrap;html=1;fillColor=#f5f5f5;fontColor=#333333;strokeColor=#666666;" vertex="1" parent="1">
          <mxGeometry x="55" y="870" width="120" height="60" as="geometry" />
        </mxCell>
        <mxCell id="K6s3JF-0Fj6q0EBu_NB_-14" value="end" style="ellipse;whiteSpace=wrap;html=1;fillColor=#dae8fc;strokeColor=#6c8ebf;" vertex="1" parent="1">
          <mxGeometry x="75" y="1000" width="80" height="80" as="geometry" />
        </mxCell>
        <mxCell id="K6s3JF-0Fj6q0EBu_NB_-18" value="" style="edgeStyle=orthogonalEdgeStyle;rounded=0;orthogonalLoop=1;jettySize=auto;html=1;" edge="1" parent="1" source="K6s3JF-0Fj6q0EBu_NB_-16" target="K6s3JF-0Fj6q0EBu_NB_-17">
          <mxGeometry relative="1" as="geometry" />
        </mxCell>
        <mxCell id="K6s3JF-0Fj6q0EBu_NB_-16" value="price" style="rounded=0;whiteSpace=wrap;html=1;fillColor=#fff2cc;strokeColor=#d6b656;" vertex="1" parent="1">
          <mxGeometry x="410" y="230" width="120" height="60" as="geometry" />
        </mxCell>
        <mxCell id="K6s3JF-0Fj6q0EBu_NB_-17" value="discount" style="rounded=0;whiteSpace=wrap;html=1;fillColor=#d5e8d4;strokeColor=#82b366;" vertex="1" parent="1">
          <mxGeometry x="410" y="380" width="120" height="60" as="geometry" />
        </mxCell>
        <mxCell id="K6s3JF-0Fj6q0EBu_NB_-19" value="online payments" style="rounded=0;whiteSpace=wrap;html=1;fillColor=#f8cecc;strokeColor=#b85450;" vertex="1" parent="1">
          <mxGeometry x="410" y="90" width="120" height="60" as="geometry" />
        </mxCell>
        <mxCell id="K6s3JF-0Fj6q0EBu_NB_-21" value="" style="endArrow=classic;html=1;rounded=0;entryX=0.5;entryY=0;entryDx=0;entryDy=0;" edge="1" parent="1" target="K6s3JF-0Fj6q0EBu_NB_-16">
          <mxGeometry width="50" height="50" relative="1" as="geometry">
            <mxPoint x="470" y="150" as="sourcePoint" />
            <mxPoint x="520" y="100" as="targetPoint" />
          </mxGeometry>
        </mxCell>
        <mxCell id="K6s3JF-0Fj6q0EBu_NB_-24" value="" style="endArrow=none;html=1;rounded=0;" edge="1" parent="1">
          <mxGeometry width="50" height="50" relative="1" as="geometry">
            <mxPoint x="170" y="40" as="sourcePoint" />
            <mxPoint x="460" y="40" as="targetPoint" />
          </mxGeometry>
        </mxCell>
        <mxCell id="K6s3JF-0Fj6q0EBu_NB_-26" value="" style="endArrow=classic;html=1;rounded=0;entryX=0.413;entryY=0.01;entryDx=0;entryDy=0;entryPerimeter=0;" edge="1" parent="1" target="K6s3JF-0Fj6q0EBu_NB_-19">
          <mxGeometry width="50" height="50" relative="1" as="geometry">
            <mxPoint x="460" y="40" as="sourcePoint" />
            <mxPoint x="470" y="90" as="targetPoint" />
          </mxGeometry>
        </mxCell>
      </root>
    </mxGraphModel>
  </diagram>
</mxfile>
